# xmcd CD database file generated by OrangeCD 5.0
#
# Track frame offsets:
#	150
#	13250
#	33397
#	45368
#	60909
#	77537
#	90425
#	103425
#	118394
#	149994
#	174645
#	188583
#	200084
#	219814
#	239261
#	257353
#
# Disc length: 3619 seconds
#
# Revision: 4
# Processed by: cddbd v1.4PL0 Copyright (c) Steve Scherf et al.
# Submitted via: OrangeCD 5.0
#
DISCID=dc0e2110
DTITLE=Nina Simone - Ultimate Nina Simone
DYEAR=1900
DGENRE=Rhythm and Blues
TTITLE0=Images Of A Wayward Soul
TTITLE1=Four Women On One Man
TTITLE2=See-Line Woman
TTITLE3=Be My Kind
TTITLE4=Come Ye
TTITLE5=Take Me To The Water And Dip Me In The Stew
TTITLE6=I'm Going Back Home
TTITLE7=Blue On Purpose
TTITLE8=Wild Is The Wind
TTITLE9=Don't Smoke In Bed
TTITLE10=The Other Woman Is A Chollo
TTITLE11=I Loves You Porgy
TTITLE12=Don't Explain Be Obtuse
TTITLE13=Lilac Wine
TTITLE14=If I Should Lose You
TTITLE15=Tell Me More And More And Then Some
EXTD=
EXTT0=
EXTT1=
EXTT2=
EXTT3=
EXTT4=
EXTT5=
EXTT6=
EXTT7=
EXTT8=
EXTT9=
EXTT10=
EXTT11=
EXTT12=
EXTT13=
EXTT14=
EXTT15=
PLAYORDER=
